<svg id="Layer_1" data-name="Layer 1" xmlns="http://www.w3.org/2000/svg" viewBox="0 0 512 512"><defs><style>.cls-1{fill:#d9e4e8;}.cls-2{fill:#79d3d3;}.cls-3{fill:#f4607f;}.cls-4{fill:#141f38;}</style></defs><title>stars_style_3</title><path class="cls-1" d="M473.6,64a25.6,25.6,0,1,1,25.6-25.6A25.63,25.63,0,0,1,473.6,64Z"/><path class="cls-1" d="M307.2,499.2a25.6,25.6,0,1,1,25.6-25.6A25.63,25.63,0,0,1,307.2,499.2Z"/><polygon class="cls-2" points="170.49 156.88 139.77 139.81 170.51 119.31 192 87.08 213.49 119.31 244.23 139.81 213.51 156.88 192 192.72 170.49 156.88"/><polygon class="cls-3" points="367.61 293.41 344.57 280.61 367.63 265.23 384 240.68 400.37 265.23 423.43 280.61 400.39 293.41 384 320.72 367.61 293.41"/><polygon class="cls-1" points="111.61 395.81 88.57 383.01 111.63 367.63 128 343.07 144.37 367.63 167.43 383.01 144.39 395.81 128 423.12 111.61 395.81"/><path class="cls-4" d="M44.8,64A19.2,19.2,0,1,1,64,44.8,19.2,19.2,0,0,1,44.8,64Zm416,320a12.8,12.8,0,1,0,12.8,12.8A12.8,12.8,0,0,0,460.8,384Zm-224-89.6A19.2,19.2,0,1,0,256,313.6,19.2,19.2,0,0,0,236.8,294.4ZM512,38.4A38.4,38.4,0,1,1,473.6,0,38.41,38.41,0,0,1,512,38.4Zm-25.6,0a12.8,12.8,0,1,0-12.8,12.8A12.81,12.81,0,0,0,486.4,38.4ZM345.6,473.6a38.4,38.4,0,1,1-38.4-38.4A38.41,38.41,0,0,1,345.6,473.6Zm-25.6,0a12.8,12.8,0,1,0-12.8,12.8A12.81,12.81,0,0,0,320,473.6Zm89.6-307.2a12.8,12.8,0,1,0-12.8-12.8A12.8,12.8,0,0,0,409.6,166.4Zm-332.8,64A12.8,12.8,0,1,0,64,243.2,12.8,12.8,0,0,0,76.8,230.4ZM19.2,448a19.2,19.2,0,1,0,19.2,19.2A19.2,19.2,0,0,0,19.2,448ZM222.72,166.4,192,217.6l-30.72-51.2L115.2,140.8l46.08-30.72L192,64l30.72,46.08L268.8,140.8Zm-3.05-27.59-11.15-7.43-4.26-2.84-2.84-4.26L192,110.15l-9.42,14.13-2.84,4.26-4.26,2.84-11.15,7.43,9.38,5.21,6,3.33,3.53,5.88L192,167.84l8.77-14.61,3.53-5.88,6-3.33ZM448,281.6l-38.4,21.33L384,345.6l-25.6-42.67L320,281.6,358.4,256,384,217.6,409.6,256Zm-49.13-2-3.47-2.31-4.26-2.84-2.84-4.26-4.3-6.45-4.3,6.45-2.84,4.26-4.26,2.84-3.47,2.31,1.7.94,6,3.33,3.53,5.88,3.65,6.08,3.65-6.08,3.53-5.88,6-3.33ZM153.6,358.4,192,384l-38.4,21.33L128,448l-25.6-42.67L64,384l38.4-25.6L128,320ZM142.86,382l-3.46-2.31-4.26-2.84-2.84-4.26-4.3-6.45-4.3,6.45-2.84,4.26-4.26,2.84L113.13,382l1.7.94,6,3.33,3.53,5.88,3.65,6.08,3.65-6.08,3.53-5.88,6-3.33ZM281.6,64a12.8,12.8,0,1,0-12.8-12.8A12.8,12.8,0,0,0,281.6,64Z"/></svg>